<?xml version="1.0" encoding="UTF-8"?>
<svg xmlns="http://www.w3.org/2000/svg" xmlns:xlink="http://www.w3.org/1999/xlink" viewBox="0 0 150 150" width="150px" height="150px" style="background-color:rgba(0,0,0,0);">
<g id="surface61537110">
<rect x="0" y="0" width="150" height="150" style="fill:rgb(17.647059%,19.215687%,25.882354%);fill-opacity:1;stroke:none;"/>
<path style=" stroke:none;fill-rule:nonzero;fill:rgb(50,150,255);fill-opacity:1;" d="M 123 12 L 27 12 C 18.71875 12 12 18.71875 12 27 L 12 123 C 12 131.28125 18.71875 138 27 138 L 123 138 C 131.28125 138 138 131.28125 138 123 L 138 27 C 138 18.71875 131.28125 12 123 12 Z M 51 60 L 51 117 L 33 117 L 33 60 Z M 33 43.410156 C 33 39.210938 36.601562 36 42 36 C 47.398438 36 50.789062 39.210938 51 43.410156 C 51 47.609375 47.640625 51 42 51 C 36.601562 51 33 47.609375 33 43.410156 Z M 117 117 L 99 117 C 99 117 99 89.21875 99 87 C 99 81 96 75 88.5 74.878906 L 88.261719 74.878906 C 81 74.878906 78 81.058594 78 87 C 78 89.730469 78 117 78 117 L 60 117 L 60 60 L 78 60 L 78 67.679688 C 78 67.679688 83.789062 60 95.429688 60 C 107.339844 60 117 68.191406 117 84.78125 Z M 117 117 "/>
</g>
</svg>
