<svg width="320" height="191" viewBox="0 0 320 191" fill="none" xmlns="http://www.w3.org/2000/svg">
<g id="frame">
<g id="full-cloud-outline">
<path id="cloud-outline" d="M284.5 185H43.5L40.9736 184.439C24.0447 180.677 12 165.661 12 148.32V141L12.8605 135.479C15.9194 115.85 31.3591 100.476 51 97.5L52.0073 95.2075C59.9182 77.2034 79.1518 66.9821 98.5 70.5L102.298 62.101C116.054 31.6782 144.881 10.8051 178.077 7.23011C185.621 6.41777 193.25 7.07837 200.541 9.1752L209.393 11.7208C244.42 21.7941 271.411 49.7923 280.195 85.1654L284.5 102.5C299.363 108.87 309 123.485 309 139.655V141V144.552C309 159.524 301.555 173.514 289.137 181.877L284.5 185Z" stroke="#4F5D75" stroke-width="8"/>
<path id="corner-3" d="M101 65L98.5 71.5L97.5 74.5" stroke="#4F5D75" stroke-width="8"/>
<path id="corner-2" d="M284.92 99L283.075 104.263L282.396 106.657" stroke="#4F5D75" stroke-width="8"/>
<path id="corner-1" d="M53 93L50.8571 99.1579L50 102" stroke="#4F5D75" stroke-width="8"/>
</g>
<g id="code-symbol-group">
<path id="left-bracket" d="M143.5 93L117 124L143.5 152.5" stroke="#BFC0C0" stroke-width="8" stroke-linecap="round" stroke-linejoin="round"/>
<path id="right-bracket" d="M205 152.5L231.5 121.5L205 93" stroke="#BFC0C0" stroke-width="8" stroke-linecap="round" stroke-linejoin="round"/>
<path id="slash" d="M163.662 145.374C163.04 147.493 164.254 149.716 166.374 150.338C168.493 150.96 170.716 149.746 171.338 147.626L163.662 145.374ZM184.838 101.626C185.46 99.5067 184.246 97.284 182.126 96.6619C180.007 96.0398 177.784 97.2539 177.162 99.3736L184.838 101.626ZM171.338 147.626L184.838 101.626L177.162 99.3736L163.662 145.374L171.338 147.626Z" fill="#BFC0C0"/>
</g>
</g>
</svg>
